<svg width="26" height="26" viewBox="0 0 26 26" fill="none" xmlns="http://www.w3.org/2000/svg">
<g id="icons8_headset_1 1">
<path id="Vector" d="M13 3.25C8.22635 3.25 4.33332 7.14303 4.33332 11.9167V13C3.14166 13 2.16666 13.975 2.16666 15.1667V17.3333C2.16666 18.525 3.14166 19.5 4.33332 19.5H6.49999V14.0833V13V11.9167C6.49999 8.31397 9.3973 5.41667 13 5.41667C16.6027 5.41667 19.5 8.31397 19.5 11.9167V13V14.0833V19.5V20.5833H15.0714C14.9596 20.2669 14.7524 19.9928 14.4785 19.7989C14.2046 19.6049 13.8773 19.5005 13.5417 19.5C13.1107 19.5 12.6974 19.6712 12.3926 19.976C12.0879 20.2807 11.9167 20.694 11.9167 21.125C11.9172 21.5355 12.0731 21.9305 12.3529 22.2308C12.6328 22.531 13.0159 22.7143 13.4253 22.7437C13.4639 22.7479 13.5028 22.75 13.5417 22.75H19.5C20.6841 22.75 21.6667 21.7675 21.6667 20.5833V19.5C22.8583 19.5 23.8333 18.525 23.8333 17.3333V15.1667C23.8333 13.975 22.8583 13 21.6667 13V11.9167C21.6667 7.14303 17.7736 3.25 13 3.25Z" fill="#FACC15"/>
</g>
</svg>
