<svg width="26" height="26" viewBox="0 0 26 26" fill="none" xmlns="http://www.w3.org/2000/svg">
<g id="icons8_share_2 1">
<path id="Vector" d="M19.5 2.16669C18.638 2.16669 17.8114 2.5091 17.2019 3.11859C16.5924 3.72808 16.25 4.55473 16.25 5.41669C16.2507 5.62052 16.2705 5.82383 16.3092 6.02395L8.60107 10.5202C8.01397 10.0229 7.26945 9.74994 6.5 9.75002C5.63805 9.75002 4.8114 10.0924 4.2019 10.7019C3.59241 11.3114 3.25 12.1381 3.25 13C3.25 13.862 3.59241 14.6886 4.2019 15.2981C4.8114 15.9076 5.63805 16.25 6.5 16.25C7.26826 16.2485 8.01115 15.9749 8.59684 15.4777L16.3092 19.9761C16.2705 20.1762 16.2507 20.3795 16.25 20.5834C16.25 21.4453 16.5924 22.272 17.2019 22.8815C17.8114 23.4909 18.638 23.8334 19.5 23.8334C20.362 23.8334 21.1886 23.4909 21.7981 22.8815C22.4076 22.272 22.75 21.4453 22.75 20.5834C22.75 19.7214 22.4076 18.8948 21.7981 18.2853C21.1886 17.6758 20.362 17.3334 19.5 17.3334C18.731 17.3344 17.9873 17.608 17.401 18.1057L9.69076 13.6073C9.7295 13.4072 9.74934 13.2039 9.75 13C9.74934 12.7962 9.7295 12.5929 9.69076 12.3928L17.3989 7.8965C17.986 8.39386 18.7306 8.66677 19.5 8.66669C20.362 8.66669 21.1886 8.32428 21.7981 7.71478C22.4076 7.10529 22.75 6.27864 22.75 5.41669C22.75 4.55473 22.4076 3.72808 21.7981 3.11859C21.1886 2.5091 20.362 2.16669 19.5 2.16669Z" fill="#FACC15"/>
</g>
</svg>
