<svg width="30" height="30" viewBox="0 0 30 30" fill="none" xmlns="http://www.w3.org/2000/svg">
<g id="icons8_airport_terminal 1" clip-path="url(#clip0_0_147)">
<path id="Vector" d="M14.5312 20.625C17.9062 20.625 21.2344 20.1797 24.4688 19.2891C25.4062 19.0313 26.3438 18.75 27.2578 18.4219L29.0625 29.0625H11.0156V20.625H14.5312Z" fill="#FACC15"/>
<path id="Vector_2" d="M11.0156 7.96875L11.9531 4.6875H6.32812L7.26562 7.96875H0.9375L3.28125 15H7.26562V29.0625H11.0156V15H15L17.3438 7.96875H11.0156Z" fill="white"/>
<path id="Vector_3" d="M15 15H3.28125L0.9375 7.96875H17.3438L15 15Z" fill="white"/>
<path id="Vector_4" d="M29.0625 29.7656H27.8906C27.4922 29.7656 27.1875 29.4609 27.1875 29.0625C27.1875 28.6641 27.4922 28.3594 27.8906 28.3594H29.0625C29.4609 28.3594 29.7656 28.6641 29.7656 29.0625C29.7656 29.4609 29.4609 29.7656 29.0625 29.7656Z" fill="#2C2C2E"/>
<path id="Vector_5" d="M24.375 28.3594H11.7188V15.7031H15C15.3047 15.7031 15.5625 15.5156 15.6563 15.2109L18 8.17969C18.0703 7.96875 18.0469 7.73438 17.9062 7.54688C17.7891 7.38281 17.5781 7.26562 17.3438 7.26562H11.9531L12.6328 4.875C12.7031 4.66406 12.6562 4.42969 12.5156 4.26562C12.375 4.10156 12.1641 3.98438 11.9531 3.98438H9.84375V0.9375C9.84375 0.539062 9.53906 0.234375 9.14062 0.234375C8.74219 0.234375 8.4375 0.539062 8.4375 0.9375V3.98438H6.32812C6.11719 3.98438 5.90625 4.07813 5.76562 4.26562C5.625 4.45312 5.60156 4.66406 5.64844 4.875L6.32812 7.26562H0.9375C0.703125 7.26562 0.492188 7.38281 0.375 7.54688C0.257813 7.71094 0.1875 7.96875 0.28125 8.17969L2.625 15.2109C2.71875 15.4922 3 15.7031 3.28125 15.7031H6.5625V28.3594H0.9375C0.539062 28.3594 0.234375 28.6641 0.234375 29.0625C0.234375 29.4609 0.539062 29.7656 0.9375 29.7656H24.375C24.7734 29.7656 25.0781 29.4609 25.0781 29.0625C25.0781 28.6641 24.7734 28.3594 24.375 28.3594ZM11.0156 5.39062L10.4766 7.26562H7.80469L7.26562 5.39062H11.0156ZM3.79688 14.2969L1.92188 8.67188H16.3828L14.5078 14.2969H3.79688ZM7.96875 15.7031H10.3125V28.3594H7.96875V15.7031Z" fill="#2C2C2E"/>
<path id="Vector_6" d="M29.0625 24.6094H14.5312C14.1328 24.6094 13.8281 24.3047 13.8281 23.9062C13.8281 23.5078 14.1328 23.2031 14.5312 23.2031H29.0625C29.4609 23.2031 29.7656 23.5078 29.7656 23.9062C29.7656 24.3047 29.4609 24.6094 29.0625 24.6094Z" fill="#2C2C2E"/>
<path id="Vector_7" d="M14.5312 21.3281C14.1328 21.3281 13.8281 21.0234 13.8281 20.625C13.8281 20.2265 14.1328 19.9219 14.5312 19.9219C18.7969 19.9219 23.0156 19.1953 27.0469 17.7656C27.4219 17.625 27.8203 17.8359 27.9375 18.1875C28.0781 18.5625 27.8672 18.9609 27.5156 19.0781C23.3438 20.5781 18.9609 21.3281 14.5312 21.3281Z" fill="#2C2C2E"/>
</g>
<defs>
<clipPath id="clip0_0_147">
<rect width="30" height="30" fill="white"/>
</clipPath>
</defs>
</svg>
