<svg width="30" height="30" viewBox="0 0 30 30" fill="none" xmlns="http://www.w3.org/2000/svg">
<g id="icons8_customs 1">
<path id="Vector" d="M8.20311 0.9375L9.37499 5.39062L6.0703 7.82813C5.6953 8.08594 5.90624 8.67188 6.35155 8.67188H9.56249V12C10.4062 14.1797 12.5391 15.7031 15 15.7031C18.2344 15.7031 20.8594 13.0781 20.8594 9.84375V5.39062L22.0312 0.9375H8.20311Z" fill="white"/>
<path id="Vector_2" d="M25.5469 29.0625V26.8828C25.5469 23.7422 24.1641 21.6797 21.9844 20.4609L19.1719 20.7656L18.5156 19.2891C17.4375 19.0781 16.2422 18.9844 15 18.9844C9.16406 18.9844 4.45312 21.0703 4.45312 26.8828V29.0625H25.5469Z" fill="#FACC15"/>
<path id="Vector_3" d="M21.9844 20.4844C20.9765 19.9219 19.8047 19.5234 18.539 19.2891L11.4609 26.2734C10.4297 27.3047 11.1562 29.0625 12.6094 29.0625C13.0547 29.0625 13.4531 28.8984 13.7578 28.5703L21.9844 20.4844Z" fill="white"/>
<path id="Vector_4" d="M25.5469 29.7656C25.1484 29.7656 24.8438 29.4609 24.8438 29.0625V26.9063C24.8438 24.4219 23.9062 22.5469 22.0547 21.3281L14.2969 29.0859C13.8516 29.5312 13.2656 29.7656 12.6328 29.7656C11.6719 29.7656 10.8281 29.2031 10.4766 28.3125C10.1016 27.4219 10.3125 26.4375 10.9922 25.7578L16.9922 19.7578C16.3359 19.7109 15.6797 19.6875 15 19.6875C10.5 19.6875 5.15625 20.9297 5.15625 26.9063V29.0625C5.15625 29.4609 4.85156 29.7656 4.45312 29.7656C4.05469 29.7656 3.75 29.4609 3.75 29.0625V26.9063C3.75 21.3516 7.73438 18.2812 15 18.2812C16.2891 18.2812 17.4844 18.375 18.5859 18.5859C18.7734 18.6094 18.9375 18.7266 19.0312 18.8672C19.1484 19.0312 19.1719 19.2188 19.1484 19.4063C19.125 19.5469 19.0547 19.6641 18.9609 19.7813L11.9766 26.7656C11.5547 27.1875 11.7188 27.6562 11.7656 27.7969C11.8125 27.9375 12.0469 28.3828 12.6328 28.3828C12.8906 28.3828 13.125 28.2891 13.2891 28.1016L21.4219 19.9687C21.6328 19.7578 21.9844 19.7109 22.2656 19.8516C24.8672 21.2812 26.25 23.7422 26.25 26.9297V29.0859C26.25 29.4609 25.9453 29.7656 25.5469 29.7656Z" fill="#2C2C2E"/>
<path id="Vector_5" d="M20.8594 5.39062L22.0312 0.9375H8.20311L9.37499 5.39062L6.0703 7.82813C5.6953 8.08594 5.90624 8.67188 6.35155 8.67188H10.7344H16.0781C17.3203 8.67188 18.5156 8.17969 19.3828 7.28906L20.8594 5.39062Z" fill="#FACC15"/>
<path id="Vector_6" d="M16.0781 9.375H6.35155C5.83592 9.375 5.39061 9.04688 5.22655 8.57812C5.06249 8.08594 5.22655 7.57031 5.64842 7.26562L8.57811 5.10938L7.52342 1.125C7.47655 0.914063 7.52342 0.679688 7.64061 0.515625C7.7578 0.351563 7.99217 0.234375 8.20311 0.234375H22.0312C22.2422 0.234375 22.4531 0.328125 22.5937 0.515625C22.7344 0.703125 22.7812 0.914063 22.7109 1.125L21.539 5.57812C21.5156 5.67188 21.4687 5.76562 21.4219 5.83594L19.9453 7.73438C19.9219 7.75781 19.8984 7.78125 19.875 7.80469C18.8672 8.8125 17.5078 9.375 16.0781 9.375ZM7.05467 7.96875H16.0547C17.1094 7.96875 18.0937 7.57031 18.8437 6.82031L20.2031 5.0625L21.1172 1.64062H9.11717L10.0547 5.20312C10.125 5.48438 10.0312 5.76562 9.79686 5.95312L7.05467 7.96875Z" fill="#FACC15"/>
<path id="Vector_7" d="M22.2188 0.257772C21.8438 0.164022 21.4688 0.374959 21.3516 0.749959L20.3203 4.68746H13.5938C13.1953 4.68746 12.8906 4.99215 12.8906 5.39058C12.8906 5.78902 13.1953 6.09371 13.5938 6.09371H20.1563V9.84371C20.1563 12.6796 17.836 15 15 15C12.8672 15 10.9922 13.7343 10.1953 11.7421C10.0547 11.3906 9.63284 11.2031 9.28127 11.3437C8.92971 11.4843 8.74221 11.9062 8.88284 12.2578C9.89065 14.789 12.3047 16.4062 15 16.4062C18.6094 16.4062 21.5625 13.4531 21.5625 9.84371V5.48433L22.711 1.12496C22.8047 0.749959 22.5938 0.351522 22.2188 0.257772Z" fill="#2C2C2E"/>
</g>
</svg>
