<svg width="30" height="30" viewBox="0 0 30 30" fill="none" xmlns="http://www.w3.org/2000/svg">
<g id="icons8_downtown 1" clip-path="url(#clip0_0_167)">
<path id="Vector" d="M27.4219 6.79688H24.8438V4.21875C24.8438 3.82031 24.5391 3.51562 24.1406 3.51562H21.3281V0.9375C21.3281 0.539062 21.0234 0.234375 20.625 0.234375H9.375C8.97656 0.234375 8.67188 0.539062 8.67188 0.9375V3.51562H5.85938C5.46094 3.51562 5.15625 3.82031 5.15625 4.21875V6.79688H2.57812C2.17969 6.79688 1.875 7.10156 1.875 7.5V28.3594C1.875 28.7578 2.17969 29.0625 2.57812 29.0625H13.125C13.2656 29.0625 13.4297 29.0156 13.5469 28.9219L15 27.8438L16.4531 28.9219C16.5703 29.0156 16.7344 29.0625 16.875 29.0625H27.4219C27.8203 29.0625 28.125 28.7578 28.125 28.3594V7.5C28.125 7.10156 27.8203 6.79688 27.4219 6.79688Z" fill="#FACC15"/>
<path id="Vector_2" d="M24.1406 4.21875H5.85938V29.0625H24.1406V4.21875Z" fill="white"/>
<path id="Vector_3" d="M9.375 25.0781C8.97656 25.0781 8.67188 24.7734 8.67188 24.375V23.2031C8.67188 22.8047 8.97656 22.5 9.375 22.5C9.77344 22.5 10.0781 22.8047 10.0781 23.2031V24.375C10.0781 24.7734 9.77344 25.0781 9.375 25.0781Z" fill="#1C1C1E"/>
<path id="Vector_4" d="M20.625 25.0781C20.2266 25.0781 19.9219 24.7734 19.9219 24.375V23.2031C19.9219 22.8047 20.2266 22.5 20.625 22.5C21.0234 22.5 21.3281 22.8047 21.3281 23.2031V24.375C21.3281 24.7734 21.0234 25.0781 20.625 25.0781Z" fill="#1C1C1E"/>
<path id="Vector_5" d="M9.375 20.625C8.97656 20.625 8.67188 20.3203 8.67188 19.9219V18.75C8.67188 18.3516 8.97656 18.0469 9.375 18.0469C9.77344 18.0469 10.0781 18.3516 10.0781 18.75V19.9219C10.0781 20.3203 9.77344 20.625 9.375 20.625Z" fill="#1C1C1E"/>
<path id="Vector_6" d="M13.125 20.625C12.7266 20.625 12.4219 20.3203 12.4219 19.9219V18.75C12.4219 18.3516 12.7266 18.0469 13.125 18.0469C13.5234 18.0469 13.8281 18.3516 13.8281 18.75V19.9219C13.8281 20.3203 13.5234 20.625 13.125 20.625Z" fill="#1C1C1E"/>
<path id="Vector_7" d="M16.875 20.625C16.4766 20.625 16.1719 20.3203 16.1719 19.9219V18.75C16.1719 18.3516 16.4766 18.0469 16.875 18.0469C17.2734 18.0469 17.5781 18.3516 17.5781 18.75V19.9219C17.5781 20.3203 17.2734 20.625 16.875 20.625Z" fill="#1C1C1E"/>
<path id="Vector_8" d="M20.625 20.625C20.2266 20.625 19.9219 20.3203 19.9219 19.9219V18.75C19.9219 18.3516 20.2266 18.0469 20.625 18.0469C21.0234 18.0469 21.3281 18.3516 21.3281 18.75V19.9219C21.3281 20.3203 21.0234 20.625 20.625 20.625Z" fill="#1C1C1E"/>
<path id="Vector_9" d="M9.375 16.1719C8.97656 16.1719 8.67188 15.8672 8.67188 15.4688V14.2969C8.67188 13.8984 8.97656 13.5938 9.375 13.5938C9.77344 13.5938 10.0781 13.8984 10.0781 14.2969V15.4688C10.0781 15.8672 9.77344 16.1719 9.375 16.1719Z" fill="#1C1C1E"/>
<path id="Vector_10" d="M13.125 16.1719C12.7266 16.1719 12.4219 15.8672 12.4219 15.4688V14.2969C12.4219 13.8984 12.7266 13.5938 13.125 13.5938C13.5234 13.5938 13.8281 13.8984 13.8281 14.2969V15.4688C13.8281 15.8672 13.5234 16.1719 13.125 16.1719Z" fill="#1C1C1E"/>
<path id="Vector_11" d="M16.875 16.1719C16.4766 16.1719 16.1719 15.8672 16.1719 15.4688V14.2969C16.1719 13.8984 16.4766 13.5938 16.875 13.5938C17.2734 13.5938 17.5781 13.8984 17.5781 14.2969V15.4688C17.5781 15.8672 17.2734 16.1719 16.875 16.1719Z" fill="#1C1C1E"/>
<path id="Vector_12" d="M20.625 16.1719C20.2266 16.1719 19.9219 15.8672 19.9219 15.4688V14.2969C19.9219 13.8984 20.2266 13.5938 20.625 13.5938C21.0234 13.5938 21.3281 13.8984 21.3281 14.2969V15.4688C21.3281 15.8672 21.0234 16.1719 20.625 16.1719Z" fill="#1C1C1E"/>
<path id="Vector_13" d="M9.375 11.7188C8.97656 11.7188 8.67188 11.4141 8.67188 11.0156V9.84375C8.67188 9.44531 8.97656 9.14062 9.375 9.14062C9.77344 9.14062 10.0781 9.44531 10.0781 9.84375V11.0156C10.0781 11.4141 9.77344 11.7188 9.375 11.7188Z" fill="#1C1C1E"/>
<path id="Vector_14" d="M13.125 11.7188C12.7266 11.7188 12.4219 11.4141 12.4219 11.0156V9.84375C12.4219 9.44531 12.7266 9.14062 13.125 9.14062C13.5234 9.14062 13.8281 9.44531 13.8281 9.84375V11.0156C13.8281 11.4141 13.5234 11.7188 13.125 11.7188Z" fill="#1C1C1E"/>
<path id="Vector_15" d="M16.875 11.7188C16.4766 11.7188 16.1719 11.4141 16.1719 11.0156V9.84375C16.1719 9.44531 16.4766 9.14062 16.875 9.14062C17.2734 9.14062 17.5781 9.44531 17.5781 9.84375V11.0156C17.5781 11.4141 17.2734 11.7188 16.875 11.7188Z" fill="#1C1C1E"/>
<path id="Vector_16" d="M20.625 11.7188C20.2266 11.7188 19.9219 11.4141 19.9219 11.0156V9.84375C19.9219 9.44531 20.2266 9.14062 20.625 9.14062C21.0234 9.14062 21.3281 9.44531 21.3281 9.84375V11.0156C21.3281 11.4141 21.0234 11.7188 20.625 11.7188Z" fill="#1C1C1E"/>
<path id="Vector_17" d="M29.0625 28.3594H24.8438V4.21875C24.8438 3.82031 24.5391 3.51562 24.1406 3.51562H5.85938C5.46094 3.51562 5.15625 3.82031 5.15625 4.21875V28.3594H0.9375C0.539062 28.3594 0.234375 28.6641 0.234375 29.0625C0.234375 29.4609 0.539062 29.7656 0.9375 29.7656H13.125C13.5234 29.7656 13.8281 29.4609 13.8281 29.0625V23.9062H16.1719V29.0625C16.1719 29.4609 16.4766 29.7656 16.875 29.7656H29.0625C29.4609 29.7656 29.7656 29.4609 29.7656 29.0625C29.7656 28.6641 29.4609 28.3594 29.0625 28.3594ZM16.875 22.5H13.125C12.7266 22.5 12.4219 22.8047 12.4219 23.2031V28.3594H6.5625V4.92188H23.4375V28.3594H17.5781V23.2031C17.5781 22.8047 17.2734 22.5 16.875 22.5Z" fill="#1C1C1E"/>
</g>
<defs>
<clipPath id="clip0_0_167">
<rect width="30" height="30" fill="white"/>
</clipPath>
</defs>
</svg>
