<svg width="20" height="20" viewBox="0 0 20 20" fill="none" xmlns="http://www.w3.org/2000/svg">
<g id="icons8_place_marker_1 1">
<path id="Vector" d="M10 1.66666C6.78334 1.66666 4.16668 4.28333 4.16668 7.5C4.16668 8.885 4.66348 10.2291 5.56723 11.2866C5.6689 11.405 8.06909 14.1967 8.87534 14.9658C9.19075 15.2667 9.59501 15.4167 10 15.4167C10.405 15.4167 10.8097 15.2667 11.1255 14.9658C12.0622 14.0725 14.3382 11.3983 14.4336 11.2858C15.3361 10.2296 15.8333 8.885 15.8333 7.5C15.8333 4.28333 13.2167 1.66666 10 1.66666ZM10 5.41666C11.1504 5.41666 12.0833 6.34958 12.0833 7.5C12.0833 8.65041 11.1504 9.58333 10 9.58333C8.84959 9.58333 7.91668 8.65041 7.91668 7.5C7.91668 6.34958 8.84959 5.41666 10 5.41666ZM5.32146 12.2673C3.42771 12.8143 2.08334 13.7304 2.08334 15C2.08334 17.1883 6.06584 18.3333 10 18.3333C13.9342 18.3333 17.9167 17.1883 17.9167 15C17.9167 13.7308 16.5731 12.8156 14.6802 12.2681C14.4394 12.5414 14.1097 12.9141 13.7468 13.3187C15.5909 13.7524 16.6667 14.4546 16.6667 15C16.6667 15.8496 14.0696 17.0833 10 17.0833C5.93043 17.0833 3.33334 15.8496 3.33334 15C3.33334 14.4542 4.41106 13.7508 6.25815 13.3171C5.8969 12.915 5.5648 12.5418 5.32146 12.2673Z" fill="#FACC15"/>
</g>
</svg>
