<svg width="16" height="17" viewBox="0 0 16 17" fill="none" xmlns="http://www.w3.org/2000/svg">
<g id="icons8_wedding_day 1">
<path id="Vector" d="M14 5.16667V4.66667C14 3.472 13.028 2.5 11.8333 2.5H4.16667C2.972 2.5 2 3.472 2 4.66667V5.16667H14ZM2 6.16667V12.3333C2 13.528 2.972 14.5 4.16667 14.5H11.8333C13.028 14.5 14 13.528 14 12.3333V6.16667H2ZM9.806 10.219L8.23133 11.74C8.167 11.802 8.08333 11.8333 8 11.8333C7.91667 11.8333 7.833 11.802 7.76867 11.7397L6.19533 10.2203C5.96533 9.996 5.83733 9.697 5.83333 9.37767C5.82933 9.05833 5.95067 8.75633 6.17367 8.52767C6.39633 8.299 6.695 8.171 7.01467 8.167C7.34233 8.16333 7.636 8.28367 7.86467 8.507L8 8.639L8.13533 8.507C8.36333 8.284 8.669 8.15433 8.985 8.167C9.30467 8.17067 9.60333 8.299 9.82633 8.528C10.0493 8.75633 10.1703 9.058 10.1667 9.37767C10.1627 9.697 10.0347 9.99567 9.806 10.219Z" fill="#2C2C2E"/>
</g>
</svg>
