<svg width="16" height="16" viewBox="0 0 16 16" fill="none" xmlns="http://www.w3.org/2000/svg">
<g id="Group 33834">
<path id="Rectangle 4072" d="M0 16L16 0V8C16 12.4183 12.4183 16 8 16H0Z" fill="#FACC15"/>
<g id="icons8_Done_2 1">
<path id="Vector" d="M13.8115 7.63747L13.1908 7.2156C13.0191 7.09931 12.7838 7.14393 12.6689 7.3143L9.62651 11.8008L8.22838 10.4026C8.08234 10.2566 7.84436 10.2566 7.69833 10.4026L7.16693 10.934C7.0209 11.0801 7.0209 11.3181 7.16693 11.4654L9.31687 13.6154C9.43721 13.7357 9.62651 13.8277 9.79689 13.8277C9.96726 13.8277 10.139 13.7209 10.2499 13.5599L13.9115 8.15805C14.0278 7.98768 13.9832 7.75376 13.8115 7.63747Z" fill="white"/>
</g>
</g>
</svg>
