<svg width="20" height="20" viewBox="0 0 20 20" fill="none" xmlns="http://www.w3.org/2000/svg">
<g id="Notification">
<rect x="0.5" y="0.5" width="19" height="19" rx="9.5" stroke="#FACC15"/>
<g id="add">
<g id="vuesax/outline/add">
<g id="add_2">
<path id="Vector" d="M14 10.5H6C5.72667 10.5 5.5 10.2733 5.5 10C5.5 9.72667 5.72667 9.5 6 9.5H14C14.2733 9.5 14.5 9.72667 14.5 10C14.5 10.2733 14.2733 10.5 14 10.5Z" fill="#FACC15"/>
<path id="Vector_2" d="M10 14.5C9.72667 14.5 9.5 14.2733 9.5 14V6C9.5 5.72667 9.72667 5.5 10 5.5C10.2733 5.5 10.5 5.72667 10.5 6V14C10.5 14.2733 10.2733 14.5 10 14.5Z" fill="#FACC15"/>
</g>
</g>
</g>
</g>
</svg>
