<svg width="20" height="20" viewBox="0 0 20 20" fill="none" xmlns="http://www.w3.org/2000/svg">
<g id="icons8_ok_1 1">
<path id="Vector" d="M10 1.66666C5.39752 1.66666 1.66669 5.39749 1.66669 9.99999C1.66669 14.6025 5.39752 18.3333 10 18.3333C14.6025 18.3333 18.3334 14.6025 18.3334 9.99999C18.3334 5.39749 14.6025 1.66666 10 1.66666ZM14.7559 8.08916L8.92252 13.9225C8.76002 14.085 8.54669 14.1667 8.33335 14.1667C8.12002 14.1667 7.90669 14.085 7.74419 13.9225L5.24419 11.4225C4.91835 11.0967 4.91835 10.57 5.24419 10.2442C5.57002 9.91832 6.09669 9.91832 6.42252 10.2442L8.33335 12.155L13.5775 6.91082C13.9034 6.58499 14.43 6.58499 14.7559 6.91082C15.0817 7.23666 15.0817 7.76332 14.7559 8.08916Z" fill="#FACC15"/>
</g>
</svg>
