<svg width="20" height="20" viewBox="0 0 20 20" fill="none" xmlns="http://www.w3.org/2000/svg">
<g id="icons8_read_message_3 1">
<path id="Vector" d="M5.00002 1.66666V4.57681L2.49351 6.0384C1.98351 6.3359 1.66669 6.888 1.66669 7.47883V15.8333C1.66669 16.7525 2.41419 17.5 3.33335 17.5H16.6667C17.5859 17.5 18.3334 16.7525 18.3334 15.8333V7.47883C18.3334 6.888 18.0165 6.3359 17.5065 6.0384L15 4.57681V1.66666H5.00002ZM6.66669 3.33332H13.3334V9.44498L10 11.5185L6.66669 9.44335V3.33332ZM8.33335 4.99999V6.66666H11.6667V4.99999H8.33335ZM5.00002 6.50552V8.40657L3.42287 7.42512L5.00002 6.50552ZM15 6.50715L16.5772 7.42675L15 8.40819V6.50715ZM8.33335 7.49999V9.16666H11.6667V7.49999H8.33335ZM3.33335 9.33267L10 13.4814L16.6667 9.33267L16.6683 15.8333H3.33335V9.33267Z" fill="black"/>
</g>
</svg>
