<svg width="20" height="20" viewBox="0 0 20 20" fill="none" xmlns="http://www.w3.org/2000/svg">
<g id="icons8_typing 1">
<path id="Vector" d="M3.33331 2.5C2.41665 2.5 1.67478 3.25 1.67478 4.16667L1.66827 14.165C1.66827 15.0859 2.41411 15.8333 3.33494 15.8333H4.99998V19.1667L8.33331 15.8333H16.6666C17.5833 15.8333 18.3333 15.0833 18.3333 14.1667V4.16667C18.3333 3.25 17.5833 2.5 16.6666 2.5H3.33331ZM3.33331 4.16667H16.6666V14.1667H4.99998H3.33494L3.33331 4.16667ZM5.83331 8.33333V10H7.49998V8.33333H5.83331ZM9.16665 8.33333V10H10.8333V8.33333H9.16665ZM12.5 8.33333V10H14.1666V8.33333H12.5Z" fill="black"/>
</g>
</svg>
