<svg width="20" height="20" viewBox="0 0 20 20" fill="none" xmlns="http://www.w3.org/2000/svg">
<g id="icons8_phone_1 1">
<path id="Vector" d="M16.6858 12.9067C16.1608 12.8942 15.5 12.8633 15.0825 12.79C14.6308 12.71 14.0875 12.555 13.705 12.4358C13.405 12.3425 13.0783 12.425 12.8558 12.6467L11.0083 14.4833C9.73167 13.8108 8.70917 13.0275 7.84333 12.1567C6.9725 11.2908 6.18917 10.2683 5.51667 8.99167L7.35333 7.14333C7.575 6.92083 7.6575 6.59417 7.56417 6.29417C7.44583 5.9125 7.29 5.36917 7.21083 4.9175C7.13667 4.5 7.10667 3.83917 7.09333 3.31417C7.0825 2.86 6.7125 2.5 6.25833 2.5H3.33333C2.96833 2.5 2.5 2.77333 2.5 3.33333C2.5 7.11583 4.03333 10.7283 6.63833 13.3617C9.27167 15.9667 12.8842 17.5 16.6667 17.5C17.2267 17.5 17.5 17.0317 17.5 16.6667V13.7417C17.5 13.2875 17.14 12.9175 16.6858 12.9067Z" fill="black"/>
</g>
</svg>
