<svg width="30" height="30" viewBox="0 0 30 30" fill="none" xmlns="http://www.w3.org/2000/svg">
<g id="icons8_map_editing 1" clip-path="url(#clip0_1_371)">
<path id="Vector" opacity="0.35" d="M8.37125 2.2325L5.57375 3.90749C4.44125 4.58499 3.75 5.80625 3.75 7.12499V23.8825C3.75 25.475 5.48625 26.4587 6.8525 25.64L8.37 24.7312C8.87125 24.43 9.43375 24.2687 10 24.2437V1.745C9.43375 1.77 8.8725 1.9325 8.37125 2.2325Z" fill="#FACC15"/>
<path id="Vector_2" d="M11.6988 2.10502C11.1638 1.83752 10.5787 1.72002 10 1.74627V24.2438C10.5787 24.2188 11.1637 24.3363 11.7 24.6038L15 26.25V3.75002L11.6988 2.10502Z" fill="#FACC15"/>
<path id="Vector_3" opacity="0.35" d="M22.5 3.75H15V11.25V26.25H22.5C24.5712 26.25 26.25 24.57 26.25 22.5V11.25V9.16125V7.5C26.25 5.43 24.5712 3.75 22.5 3.75Z" fill="#FACC15"/>
<path id="Vector_4" d="M28.9225 0.448811C27.8888 -0.294939 26.4387 -0.0761894 25.5387 0.823811L18.2487 8.11381C17.77 8.59381 17.5 9.24381 17.5 9.92256V11.4963C17.5 12.0388 17.94 12.4788 18.4825 12.4788H20.0563C20.735 12.4788 21.385 12.2101 21.865 11.7301L29.2512 4.34381C30.3487 3.24506 30.24 1.39756 28.9225 0.448811Z" fill="#FACC15"/>
</g>
<defs>
<clipPath id="clip0_1_371">
<rect width="30" height="30" fill="white"/>
</clipPath>
</defs>
</svg>
