<svg width="42" height="42" viewBox="0 0 42 42" fill="none" xmlns="http://www.w3.org/2000/svg">
<g id="Group 1053">
<g id="Ellipse 82">
<circle cx="21" cy="21" r="21" fill="black" fill-opacity="0.6"/>
<circle cx="21" cy="21" r="20.5" stroke="white" stroke-opacity="0.5"/>
</g>
<g id="icons8_headset_1 1">
<path id="Vector" d="M20.9999 10.5001C15.8591 10.5001 11.6666 14.6926 11.6666 19.8335V21.0001C10.3833 21.0001 9.33325 22.0501 9.33325 23.3335V25.6668C9.33325 26.9501 10.3833 28.0001 11.6666 28.0001H13.9999V22.1668V21.0001V19.8335C13.9999 15.9536 17.1201 12.8335 20.9999 12.8335C24.8797 12.8335 27.9999 15.9536 27.9999 19.8335V21.0001V22.1668V28.0001V29.1668H23.2307C23.1102 28.826 22.8872 28.5309 22.5922 28.322C22.2972 28.1131 21.9447 28.0006 21.5833 28.0001C21.1191 28.0001 20.674 28.1845 20.3458 28.5127C20.0176 28.8409 19.8333 29.286 19.8333 29.7501C19.8338 30.1922 20.0017 30.6176 20.3031 30.9409C20.6044 31.2643 21.017 31.4616 21.4579 31.4933C21.4995 31.4978 21.5414 31.5001 21.5833 31.5001H27.9999C29.2752 31.5001 30.3333 30.442 30.3333 29.1668V28.0001C31.6166 28.0001 32.6666 26.9501 32.6666 25.6668V23.3335C32.6666 22.0501 31.6166 21.0001 30.3333 21.0001V19.8335C30.3333 14.6926 26.1408 10.5001 20.9999 10.5001Z" fill="white"/>
</g>
</g>
</svg>
