<svg width="30" height="30" viewBox="0 0 30 30" fill="none" xmlns="http://www.w3.org/2000/svg">
<g id="icons8_childrens_backpack 1">
<path id="Vector" d="M5.90622 26.4844C4.40622 26.4844 3.23435 25.1719 3.39841 23.6953L3.60935 21.7266C3.72653 20.4141 4.80466 19.4531 6.09372 19.4531H6.63278" fill="#FACC15"/>
<path id="Vector_2" d="M23.3672 19.4531H23.9063C25.1953 19.4531 26.2969 20.4375 26.4141 21.7266L26.625 23.6953C26.7891 25.1953 25.6172 26.4844 24.1172 26.4844" fill="#FACC15"/>
<path id="Vector_3" d="M21.7734 29.0625H8.22656C6.84374 29.0625 5.74218 27.8672 5.90624 26.4844L7.24218 13.8047C7.64062 9.82031 10.9922 6.79688 15 6.79688C19.0078 6.79688 22.3594 9.82031 22.7578 13.7812L24.0937 26.4609C24.2578 27.8672 23.1562 29.0625 21.7734 29.0625Z" fill="white"/>
<path id="Vector_4" d="M24.0937 26.4844L22.875 14.9766C22.8047 14.3906 22.3593 13.875 21.7734 13.8047C20.9297 13.6875 20.2265 14.3906 20.3203 15.2109C20.9765 21.3516 16.1484 26.7188 9.96091 26.7188H8.27341C7.66403 26.7188 7.12497 27.1641 7.05466 27.7734C6.98434 28.4766 7.54684 29.0625 8.22653 29.0625H19.1953H21.7734C21.9375 29.0625 22.125 29.0391 22.289 29.0156C22.4531 28.9922 22.6172 28.9219 22.7578 28.8516C22.8984 28.7813 23.039 28.7109 23.1797 28.6172C23.25 28.5703 23.2968 28.5234 23.3672 28.4766C23.6015 28.2656 23.789 28.0078 23.9297 27.7031C24 27.5625 24.0468 27.3984 24.0937 27.2344C24.1172 27.1641 24.1172 27.0703 24.1406 27C24.1406 26.9063 24.164 26.8359 24.164 26.7422C24.164 26.6484 24.1172 26.5547 24.0937 26.4844Z" fill="#FACC15"/>
<path id="Vector_5" d="M9.21094 26.7188L9.53906 23.5313C9.84375 20.7188 12.1875 18.5156 15 18.5156C17.8125 18.5156 20.1328 20.625 20.4375 23.4141L20.7891 26.7188H9.21094Z" fill="white"/>
<path id="Vector_6" d="M18.5156 14.5312H13.8281C13.4297 14.5312 13.125 14.2266 13.125 13.8281C13.125 13.4297 13.4297 13.125 13.8281 13.125H18.5156C18.9141 13.125 19.2188 13.4297 19.2188 13.8281C19.2188 14.2266 18.9141 14.5312 18.5156 14.5312Z" fill="#2C2C2E"/>
<path id="Vector_7" d="M20.7188 26.7188C20.3672 26.7188 20.0625 26.4609 20.0156 26.0859L19.7344 23.4844C19.4766 21.0469 17.4375 19.2188 15 19.2188C12.5625 19.2188 10.5235 21.1172 10.2422 23.6016C10.1953 23.9766 9.84377 24.2578 9.46877 24.2344C9.09377 24.1875 8.81252 23.8594 8.83596 23.4609C9.18752 20.25 11.836 17.8125 15 17.8125C18.1641 17.8125 20.7891 20.1797 21.1172 23.3437L21.3985 25.9453C21.4453 26.3203 21.1641 26.6719 20.7656 26.7188C20.7656 26.7188 20.7422 26.7188 20.7188 26.7188Z" fill="#2C2C2E"/>
<path id="Vector_8" d="M9.28125 26.7187C9.23437 26.7187 9.1875 26.7187 9.14062 26.6953C9.09375 26.6719 9.04688 26.6719 9 26.6484C8.95313 26.625 8.90625 26.6016 8.88281 26.5781C8.83594 26.5547 8.8125 26.5312 8.76563 26.4844C8.625 26.3437 8.55469 26.1797 8.55469 25.9922C8.55469 25.8047 8.625 25.6172 8.76563 25.5C8.78906 25.4766 8.83594 25.4297 8.88281 25.4062C8.92969 25.3828 8.95313 25.3594 9 25.3359C9.04688 25.3125 9.09375 25.3125 9.14062 25.2891C9.23437 25.2656 9.32813 25.2656 9.42188 25.2891C9.46875 25.2891 9.51562 25.3125 9.5625 25.3359C9.60937 25.3594 9.65625 25.3828 9.67969 25.4062C9.70312 25.4297 9.75 25.4531 9.79687 25.5C9.9375 25.6406 10.0078 25.8047 10.0078 25.9922C10.0078 26.1797 9.9375 26.3672 9.79687 26.4844C9.77344 26.5078 9.72656 26.5547 9.67969 26.5781C9.63281 26.6016 9.60937 26.625 9.5625 26.6484C9.51562 26.6719 9.46875 26.6719 9.42188 26.6953C9.375 26.7187 9.32812 26.7187 9.28125 26.7187Z" fill="#2C2C2E"/>
<path id="Vector_9" d="M27.3281 23.6016L27.1172 21.6328C26.9531 20.0156 25.6172 18.7969 24 18.75L23.4609 13.7109C23.1094 10.4297 20.9531 7.75781 18.0469 6.65625V4.92188C18.0469 3.23438 16.6875 1.875 15 1.875C13.3125 1.875 11.9531 3.23438 11.9531 4.92188V6.65625C9.04685 7.75781 6.86716 10.4297 6.53904 13.7109L5.99998 18.75C4.38279 18.7969 3.04685 20.0156 2.88279 21.6328L2.67185 23.6016C2.5781 24.5156 2.88279 25.4297 3.49216 26.1094C3.93748 26.625 4.54685 26.9531 5.2031 27.0938C5.27341 27.7031 5.53123 28.2891 5.9531 28.7578C6.53904 29.3906 7.35935 29.7656 8.22654 29.7656H21.7734C22.6406 29.7656 23.4609 29.3906 24.0469 28.7578C24.4687 28.2891 24.7265 27.7031 24.7969 27.0938C25.4531 26.9531 26.0625 26.6016 26.5078 26.1094C27.1172 25.4297 27.4219 24.5156 27.3281 23.6016ZM13.3594 4.92188C13.3594 4.00781 14.0859 3.28125 15 3.28125C15.914 3.28125 16.6406 4.00781 16.6406 4.92188V6.25781C16.1015 6.16406 15.5625 6.09375 15 6.09375C14.4375 6.09375 13.8984 6.14062 13.3594 6.25781V4.92188ZM4.54685 25.1719C4.19529 24.7734 4.03123 24.2812 4.0781 23.7656L4.28904 21.7969C4.38279 20.9531 5.03904 20.2969 5.85935 20.1797L5.27341 25.6875C4.99216 25.5703 4.73435 25.3828 4.54685 25.1719ZM22.9922 27.8203C22.6875 28.1719 22.2422 28.3594 21.7734 28.3594H8.22654C7.75779 28.3594 7.31248 28.1719 7.00779 27.8203C6.7031 27.4688 6.53904 27.0234 6.58591 26.5547L7.92185 13.875C8.32029 10.2422 11.3437 7.5 15 7.5C18.6562 7.5 21.6797 10.2422 22.0781 13.8516L23.414 26.5312C23.4609 27.0234 23.2969 27.4688 22.9922 27.8203ZM25.4531 25.1719C25.2422 25.4062 24.9844 25.5703 24.7265 25.6641L24.1406 20.1562C24.9609 20.2734 25.6172 20.9297 25.7109 21.7734L25.9219 23.7422C25.9687 24.2812 25.8047 24.7734 25.4531 25.1719Z" fill="#2C2C2E"/>
<g id="Group">
<path id="Vector_10" d="M11.4844 14.5312C11.8727 14.5312 12.1875 14.2165 12.1875 13.8281C12.1875 13.4398 11.8727 13.125 11.4844 13.125C11.096 13.125 10.7812 13.4398 10.7812 13.8281C10.7812 14.2165 11.096 14.5312 11.4844 14.5312Z" fill="#2C2C2E"/>
</g>
</g>
</svg>
