<svg width="30" height="30" viewBox="0 0 30 30" fill="none" xmlns="http://www.w3.org/2000/svg">
<g id="icons8_boarding_pass_1 1">
<path id="Vector" d="M26.7188 23.3203H3.28125C1.99219 23.3203 0.9375 22.2656 0.9375 20.9766V9.02344C0.9375 7.73438 1.99219 6.67969 3.28125 6.67969H26.7188C28.0078 6.67969 29.0625 7.73438 29.0625 9.02344V20.9766C29.0625 22.2656 28.0078 23.3203 26.7188 23.3203Z" fill="white"/>
<path id="Vector_2" d="M26.7188 23.3203H22.0312C20.7422 23.3203 19.6875 22.2656 19.6875 20.9766V9.02344C19.6875 7.73438 20.7422 6.67969 22.0312 6.67969H26.7188C28.0078 6.67969 29.0625 7.73438 29.0625 9.02344V20.9766C29.0625 22.2656 28.0078 23.3203 26.7188 23.3203Z" fill="#FACC15"/>
<path id="Vector_3" d="M16.1719 24.0234H3.28125C1.59375 24.0234 0.234375 22.6641 0.234375 20.9766V9.02344C0.234375 7.33594 1.59375 5.97656 3.28125 5.97656H17.3438C19.0312 5.97656 20.3906 7.33594 20.3906 9.02344C20.3906 9.42188 20.0859 9.72656 19.6875 9.72656C19.2891 9.72656 18.9844 9.42188 18.9844 9.02344C18.9844 8.10938 18.2578 7.38281 17.3438 7.38281H3.28125C2.36719 7.38281 1.64062 8.10938 1.64062 9.02344V20.9766C1.64062 21.8906 2.36719 22.6172 3.28125 22.6172H16.1719C16.5703 22.6172 16.875 22.9219 16.875 23.3203C16.875 23.7188 16.5703 24.0234 16.1719 24.0234Z" fill="#1C1C1E"/>
<path id="Vector_4" d="M19.6875 13.9453C19.2891 13.9453 18.9844 13.6406 18.9844 13.2422V12.0703C18.9844 11.6719 19.2891 11.3672 19.6875 11.3672C20.0859 11.3672 20.3906 11.6719 20.3906 12.0703V13.2422C20.3906 13.6406 20.0859 13.9453 19.6875 13.9453Z" fill="#1C1C1E"/>
<path id="Vector_5" d="M19.6875 18.3984C19.2891 18.3984 18.9844 18.0938 18.9844 17.6953V16.5234C18.9844 16.125 19.2891 15.8203 19.6875 15.8203C20.0859 15.8203 20.3906 16.125 20.3906 16.5234V17.6953C20.3906 18.0938 20.0859 18.3984 19.6875 18.3984Z" fill="#1C1C1E"/>
<path id="Vector_6" d="M26.7188 24.0234H22.0312C20.3438 24.0234 18.9844 22.6641 18.9844 20.9766C18.9844 20.5781 19.2891 20.2734 19.6875 20.2734C20.0859 20.2734 20.3906 20.5781 20.3906 20.9766C20.3906 21.8906 21.1172 22.6172 22.0312 22.6172H26.7188C27.6328 22.6172 28.3594 21.8906 28.3594 20.9766V9.02344C28.3594 8.10938 27.6328 7.38281 26.7188 7.38281H23.2031C22.8047 7.38281 22.5 7.07812 22.5 6.67969C22.5 6.28125 22.8047 5.97656 23.2031 5.97656H26.7188C28.4062 5.97656 29.7656 7.33594 29.7656 9.02344V20.9766C29.7656 22.6641 28.4062 24.0234 26.7188 24.0234Z" fill="#1C1C1E"/>
<path id="Vector_7" d="M8.67187 18.6328C8.48437 18.6328 8.32031 18.5625 8.17969 18.4219C7.89844 18.1406 7.89844 17.6953 8.17969 17.4375L8.88281 16.7344C9.16406 16.4531 9.60937 16.4531 9.86719 16.7344C10.1484 17.0156 10.1484 17.4609 9.86719 17.7187L9.16406 18.4219C9.02344 18.5625 8.85937 18.6328 8.67187 18.6328Z" fill="#1C1C1E"/>
<path id="Vector_8" d="M14.0625 14.1797H12L9.16406 11.3438C8.88281 11.0625 8.4375 11.0625 8.17969 11.3438C7.89844 11.625 7.89844 12.0703 8.17969 12.3281L10.0312 14.1797H7.3125L6.82031 13.6875C6.53906 13.4062 6.09375 13.4062 5.83594 13.6875C5.55469 13.9688 5.55469 14.4141 5.83594 14.6719L6.53906 15.375C6.67969 15.5156 6.84375 15.5859 7.03125 15.5859H14.0625C14.4609 15.5859 14.7656 15.2812 14.7656 14.8828C14.7656 14.4844 14.4609 14.1797 14.0625 14.1797Z" fill="#1C1C1E"/>
</g>
</svg>
