<svg width="30" height="30" viewBox="0 0 30 30" fill="none" xmlns="http://www.w3.org/2000/svg">
<g id="icons8_shop_1 1">
<path id="Vector" opacity="0.35" d="M22.5 26.25H7.5C5.42875 26.25 3.75 24.5712 3.75 22.5V8.75H26.25V22.5C26.25 24.5712 24.5712 26.25 22.5 26.25Z" fill="#C7C7CC"/>
<path id="Vector_2" d="M21.25 26.25H15V17.5C15 16.81 15.56 16.25 16.25 16.25H20C20.69 16.25 21.25 16.81 21.25 17.5V26.25Z" fill="#C7C7CC"/>
<path id="Vector_3" d="M11.25 21.25H8.75C8.06 21.25 7.5 20.69 7.5 20V17.5C7.5 16.81 8.06 16.25 8.75 16.25H11.25C11.94 16.25 12.5 16.81 12.5 17.5V20C12.5 20.69 11.94 21.25 11.25 21.25Z" fill="#C7C7CC"/>
<path id="Vector_4" d="M27.3688 10.6913L26.25 8.455V7.5C26.25 5.42875 24.5713 3.75 22.5 3.75H7.50001C5.42876 3.75 3.75001 5.42875 3.75001 7.5V8.455L2.63126 10.6913C2.37876 11.1963 2.49626 11.8063 2.91751 12.1825C3.09751 12.3425 4.73376 13.75 6.87501 13.75C8.26001 13.75 9.43501 13.16 10.14 12.7013C11.1088 13.1188 12.915 13.75 15 13.75C17.085 13.75 18.8913 13.1188 19.86 12.7013C20.565 13.16 21.74 13.75 23.125 13.75C25.2663 13.75 26.9025 12.3425 27.0825 12.1825C27.5038 11.8063 27.6213 11.1963 27.3688 10.6913Z" fill="#C7C7CC"/>
</g>
</svg>
