<svg width="14" height="14" viewBox="0 0 14 14" fill="none" xmlns="http://www.w3.org/2000/svg">
<g id="icons8_online_shop_1 1">
<path id="Vector" d="M3.06252 1.75C2.17819 1.75 1.45835 2.46983 1.45835 3.35417V4.95833H12.5417V3.35417C12.5417 2.46983 11.8219 1.75 10.9375 1.75H3.06252ZM3.06252 2.91667C3.30402 2.91667 3.50002 3.11267 3.50002 3.35417C3.50002 3.59567 3.30402 3.79167 3.06252 3.79167C2.82102 3.79167 2.62502 3.59567 2.62502 3.35417C2.62502 3.11267 2.82102 2.91667 3.06252 2.91667ZM4.52085 2.91667C4.76235 2.91667 4.95835 3.11267 4.95835 3.35417C4.95835 3.59567 4.76235 3.79167 4.52085 3.79167C4.27935 3.79167 4.08335 3.59567 4.08335 3.35417C4.08335 3.11267 4.27935 2.91667 4.52085 2.91667ZM6.27085 2.91667H10.9375C11.179 2.91667 11.375 3.11267 11.375 3.35417C11.375 3.59567 11.179 3.80021 10.9375 3.80021H6.27085C6.02935 3.80021 5.83335 3.59596 5.83335 3.35417C5.83335 3.11237 6.02935 2.91667 6.27085 2.91667ZM1.45835 5.54167L0.906352 6.25431C0.882144 6.31498 0.871785 6.38011 0.87616 6.44515C0.910628 6.96553 1.13125 7.37048 1.45835 7.6779V10.5C1.45835 11.4596 2.24876 12.25 3.20835 12.25H10.7917C11.7513 12.25 12.5417 11.4596 12.5417 10.5V7.67847C12.8688 7.37109 13.0894 6.96604 13.1239 6.44572C13.1283 6.38039 13.1179 6.31498 13.0937 6.25431L12.5417 5.54167H1.45835ZM5.39585 7.875C5.88002 8.20808 6.40881 8.45833 7.00002 8.45833C7.59123 8.45833 8.12002 8.20808 8.60419 7.875C9.05306 8.20837 9.63873 8.45833 10.2084 8.45833C10.5927 8.45833 10.9952 8.40695 11.375 8.29997V10.5C11.375 10.829 11.1207 11.0833 10.7917 11.0833H3.20835C2.87936 11.0833 2.62502 10.829 2.62502 10.5V8.29997C3.00485 8.40696 3.4073 8.45833 3.79169 8.45833C4.36131 8.45833 4.94698 8.20837 5.39585 7.875Z" fill="#8E8E93"/>
</g>
</svg>
